<?xml version="1.0" encoding="UTF-8"?>
<!DOCTYPE svg PUBLIC "-//W3C//DTD SVG 1.1//EN" "http://www.w3.org/Graphics/SVG/1.1/DTD/svg11.dtd">
<!-- Creator: CorelDRAW (Evaluation Version) -->
<svg xmlns="http://www.w3.org/2000/svg" xml:space="preserve" width="43.3492mm" height="43.3492mm" version="1.1" style="shape-rendering:geometricPrecision; text-rendering:geometricPrecision; image-rendering:optimizeQuality; fill-rule:evenodd; clip-rule:evenodd"
viewBox="0 0 4334.92 4334.92"
 xmlns:xlink="http://www.w3.org/1999/xlink"
 xmlns:xodm="http://www.corel.com/coreldraw/odm/2003">
 <defs>
  <style type="text/css">
   <![CDATA[
    .fil0 {fill:#0F3459}
    .fil1 {fill:#E34B3B}
    .fil2 {fill:#F06C2D}
    .fil3 {fill:#F39C55}
    .fil4 {fill:#F98A31}
   ]]>
  </style>
 </defs>
 <g id="Layer_x0020_1">
  <metadata id="CorelCorpID_0Corel-Layer"/>
  <g id="_350517952">
   <path class="fil0" d="M1058.4 1192l139.35 1.88 200.03 -318.02 757.64 -0.98c29.28,-30.95 41.78,-122.94 171.44,-115.08 73.98,4.48 133.12,66.26 135.99,142.01 3.11,81.73 -58.33,149.39 -134.17,158.07 -103.83,11.87 -130.07,-53.26 -169.86,-115.77l-722.59 -0.73 -196.28 321.69 -182.22 1.78 -0.34 336.11 157.04 1.5c18.11,-35.32 48.57,-65.38 75.17,-97.04 25.31,-30.14 46.32,-66.64 76.88,-91.22l382.02 -0.28 1.96 -159.32c207.02,-6.24 418.68,3.34 626.25,1.87 160.31,-1.13 365.07,0.6 364.58,258.47 -0.42,216.08 -160.21,263.64 -364.58,263.47 -197.06,-0.17 -432.9,11.09 -624.67,-1.92l-1.86 -179.47 -277.87 1.29c-34.93,36.82 -257.11,444.04 -257.45,447.46 -4.08,40.33 216.83,361.64 243.61,443.93l294.6 0.39 -0.09 -129.12c93.45,-11.69 245.16,-2.86 344.71,-2.47 283.11,1.13 742.11,-68.04 734.69,291.88 -5.34,259.05 -208.66,289.18 -397.95,290.49 -201.63,1.4 -488.58,15.78 -681.01,-2.37l-1.08 -266.8c-194.49,-5.19 -373.56,38.88 -428.85,-36.29l-120.59 -151.46 -143.18 1.73 -2.23 315.78 0.61 73.15c7.26,147.93 -32.08,456.24 38.36,565.06 87.62,135.38 307.85,102.15 500.93,102.6 373.52,0.89 842.71,25.14 1203.67,-16.02 32.66,-25.81 137.51,-193.87 160.65,-241.27l80.76 1.16 -136.49 216.79c96.06,-11.8 233.52,-81.21 304.58,-124.65 206.51,-126.22 295.06,-307.35 328.21,-555.61 22.49,-168.37 -0.03,-249.47 -37.11,-399.72l-86.45 177.15 -251.59 0.81c-33.57,97.69 -123.73,236.94 -172.43,336.73l-176.85 330.29 -363.54 -1.09c-36.27,58.59 -55.66,130.08 -169.83,116.1 -177.69,-21.75 -172.69,-289.39 9.6,-298.63 98.47,-5 122.02,54.04 163.11,116.45l318.37 -2.93c57.14,-107.94 120.11,-228.13 180.27,-337.57 58.03,-105.57 124.51,-248.06 185.49,-335.09 -43.02,-103.2 -215.98,-340.55 -247.16,-425.15l-504.33 3.5c-28.79,35.99 -63.82,125.31 -181.19,103.32 -169.75,-31.81 -160.74,-296.04 27.32,-300.82 117.06,-2.98 133.45,87.58 156.82,126.38l358.78 -2.23c67.37,-85.54 130.94,-223.42 194.33,-324.89 60.61,-97 57.38,-64.12 56.98,-199.94 -0.26,-86.21 -1.82,-173.96 -0.07,-259.99 -140.35,-45.65 -201.98,-63.61 -258.38,-181 -54.04,-112.46 -37.45,-265.9 50.49,-331.25 -6.63,-80.8 -7.84,-96.54 -222.09,-102.24 -304.65,-8.11 -670.2,1.69 -985.27,-0.55l-84.85 -0.91c-168.06,6.85 -319.57,-35.39 -404.06,94.63 -57.17,87.99 -42.65,347.94 -36.73,465.97z"/>
   <path class="fil1" d="M3501.66 2424.95c43.16,-130.69 227.17,-444.91 257.14,-565.89l186.17 -0.55c27.86,48.46 63.07,127.05 171.19,108.79 69.67,-11.77 126.49,-69.47 124.44,-151.22 -4.35,-174.03 -256.36,-194.92 -291.13,-25.95l-224.16 0.35c-35.31,40.86 -220.96,491.06 -261.78,531.4 -17.88,54.58 -69.44,175.82 -98.92,209.65l-135.2 -0.91 -302.3 -494.4 -86.19 -4.33c1.17,-31.86 152.37,-277.92 179.71,-323.2 56.51,-93.61 48.63,-82.53 47.94,-210.99 -0.45,-84.88 0.22,-170.25 -1.42,-255.03 65.62,-10.11 139.31,-43.22 178.77,-78.32 37.67,-33.51 60.81,-74.38 79.47,-122.52l21.09 -38.97c-16.19,-36.66 16.63,-84.42 -17.27,-141.82l-60.98 1.71c18.58,123.24 11.36,159.41 -60.51,234.39 -54.63,56.99 -134.53,91.13 -239.42,68.58 -76.88,-16.53 -146.34,-82.27 -172.62,-144.23 -51.41,-121.22 17.72,-156.88 -4.28,-286.39 -87.94,65.35 -104.53,218.79 -50.49,331.25 56.4,117.39 118.03,135.35 258.38,181 -1.75,86.03 -0.19,173.78 0.07,259.99 0.4,135.82 3.63,102.94 -56.98,199.94 -63.39,101.47 -126.96,239.35 -194.33,324.89l-358.78 2.23c-23.37,-38.8 -39.76,-129.36 -156.82,-126.38 -188.06,4.78 -197.07,269.01 -27.32,300.82 117.37,21.99 152.4,-67.33 181.19,-103.32l504.33 -3.5c31.18,84.6 204.14,321.95 247.16,425.15 -60.98,87.03 -127.46,229.52 -185.49,335.09 -60.16,109.44 -123.13,229.63 -180.27,337.57l-318.37 2.93c-41.09,-62.41 -64.64,-121.45 -163.11,-116.45 -182.29,9.24 -187.29,276.88 -9.6,298.63 114.17,13.98 133.56,-57.51 169.83,-116.1l363.54 1.09 176.85 -330.29c48.7,-99.79 138.86,-239.04 172.43,-336.73l251.59 -0.81 86.45 -177.15z"/>
   <path class="fil0" d="M3463.53 2321.88c-82.81,-139.86 -168.77,-185.63 -283.8,-271.29l-17.44 -14.1c125.25,-127.04 233.12,-171.55 286.16,-438.51 21.04,-105.93 19.9,-218.87 -1.56,-323.55 -25.68,-125.22 -64.18,-173.88 -100.41,-271.57l-21.09 38.97c-18.66,48.14 -41.8,89.01 -79.47,122.52 -39.46,35.1 -113.15,68.21 -178.77,78.32 1.64,84.78 0.97,170.15 1.42,255.03 0.69,128.46 8.57,117.38 -47.94,210.99 -27.34,45.28 -178.54,291.34 -179.71,323.2l86.19 4.33 302.3 494.4 135.2 0.91c29.48,-33.83 81.04,-155.07 98.92,-209.65z"/>
   <path class="fil2" d="M1058.1 2876.61l-0.61 -73.15 -538.74 4.14 -2.18 -494.09 -47.89 -1.87 -2.7 493.25c-51.95,-21.02 -12.35,-30.32 -60.61,-76.74 -23.43,-22.54 -63.54,-38.51 -106.61,-37.39 -82.32,2.14 -139.62,63.73 -141.94,144.85 -2.52,87.8 52.15,143.21 133.91,150.73 42.52,3.9 83.95,-10.11 110.41,-29.44 48.7,-35.56 21.7,-57.07 62.56,-82.53 23.6,383.44 -55.83,322.62 295.31,529.38l1310.03 768.22c124.89,73.39 213.62,35.4 318.69,-27.28l1304.52 -773.7c99.2,-59.19 172.14,-87.6 217.63,-195.6 26.56,-63.07 32.7,-736.03 14.04,-817.92l-50.38 0.87c-14.57,159.74 16.75,704.65 -7.68,791.35 -28.63,101.58 -126.01,135.98 -217.58,187.53 -91.21,51.34 -166.19,99.2 -253.43,150.58 -168.28,99.11 -336.42,194.05 -500.92,297.7 -166.98,105.22 -337.25,194.82 -507.73,300.26 -231.63,143.27 -245.23,60.98 -550.44,-113.11l-1014.43 -592.21c-70.99,-40.2 -199.45,-104.07 -249.21,-155.11 -75.55,-77.49 -58.64,-226.11 -54.5,-351.47l540.48 2.75z"/>
   <path class="fil2" d="M1058.4 1192l-423.13 5.87c-49.98,-20.39 -38.37,-114.32 -163.57,-115.32 -191.31,-1.52 -196.57,273.41 -26.36,297.99 95.05,13.72 149.72,-41.76 169.19,-114.78l443.2 1.09 182.22 -1.78 196.28 -321.69 722.59 0.73c39.79,62.51 66.03,127.64 169.86,115.77 75.84,-8.68 137.28,-76.34 134.17,-158.07 -2.87,-75.75 -62.01,-137.53 -135.99,-142.01 -129.66,-7.86 -142.16,84.13 -171.44,115.08l-757.64 0.98 -200.03 318.02 -139.35 -1.88z"/>
   <path class="fil2" d="M1748.5 1415.92l-382.02 0.28c-30.56,24.58 -51.57,61.08 -76.88,91.22 -26.6,31.66 -57.06,61.72 -75.17,97.04l-157.04 -1.5 -248.94 1.64c-45.89,-50.05 -50.15,-119.13 -163.78,-111.56 -178.28,11.88 -191.37,281.33 0.38,296.76 60.93,4.91 113.29,-22.83 136.87,-68.19 34.55,-66.46 9.17,-45.91 279.17,-45.02 234.07,-1.88 156.09,25.57 260.79,-98.44 14.95,-17.7 25.13,-31.02 37.92,-48.64 13.68,-18.85 26.22,-32.02 37.23,-46.46l351.35 3.32 432.33 -3.31c41.97,175.11 284.43,134.9 288.61,-25.33 2.04,-78.45 -53.83,-139.91 -123.28,-150.55 -106.42,-16.31 -129.15,50.26 -171.37,107.87l-426.17 0.87z"/>
   <path class="fil2" d="M1059.72 2487.68l143.18 -1.73 120.59 151.46c55.29,75.17 234.36,31.1 428.85,36.29l451.18 -0.22c24.64,27.3 51.81,126.02 171.44,111.13 176.39,-21.95 164.06,-284.52 -8.33,-296.18 -112.02,-7.58 -119.64,58.48 -163.11,117.25l-450 -2.03 -370.64 2.26c-18.61,-40.13 -72.4,-95.38 -106.47,-142.5 -44.42,-61.42 -12.43,-43.75 -219.24,-46.41l-155.69 -1.07c-19.43,-30.92 -40.59,-121.8 -160.06,-111.31 -175.57,15.42 -174.87,271.74 -10.13,294.44 47.77,6.58 78.34,-1.96 110.49,-28.96 43.61,-36.64 32.24,-47.24 62.88,-83.53l155.06 1.11z"/>
   <path class="fil1" d="M2801.06 3528.25c-23.23,47.76 -92.64,155.65 -126.1,190.46l-388.66 0.03c-56.36,-180.55 -285.17,-128.64 -292.16,30.9 -7.79,177.74 242.97,219.58 294.68,38.06l424.63 0.79c38.69,-41.25 59.51,-88.49 94.27,-137.65 35.31,-49.95 65.96,-98.73 98.26,-145.91l136.49 -216.79 -80.76 -1.16c-23.14,47.4 -127.99,215.46 -160.65,241.27z"/>
   <path class="fil3" d="M1056.88 2098.85l84.15 -5.05 -5.51 -63.62 -78.89 -5.62 -661.9 1.62c-31.29,-73.89 -57.51,-121.39 -161.36,-111.83 -77.34,7.12 -131.96,64.74 -135.75,141.76 -4.33,87.93 47.38,143.37 124.63,155.94 106.02,17.25 136.87,-44.95 170.85,-113.58l663.78 0.38z"/>
   <path class="fil4" d="M1499.19 631.4l84.85 0.91c10.46,-27.1 115.44,-178.11 138.42,-204.31l399.66 -3.07c34.37,171.58 287.65,153.77 293.1,-24.33 4.07,-132.99 -145.38,-199.15 -240.48,-124.78 -39.59,30.97 -35.08,48.43 -62.19,79.91l-428.58 2.06c-66.35,77.48 -122.54,189.57 -184.78,273.61z"/>
   <path class="fil0" d="M2878.24 980.2c26.69,-14.4 90.45,-69.42 120.68,-92.84 37.93,39.83 59.27,111.71 99.38,149l58.21 -26.5c-21.59,-59.4 -63.06,-109.81 -89.51,-169.67 50.29,-7.21 137.55,-16.65 173.61,-45.24 -66.69,-40.78 -403.65,-308.8 -444.38,-324.61l82.01 509.86z"/>
   <path class="fil0" d="M1061.09 1676.59l-4.46 347.97 78.89 5.62c45.02,-76.98 95.53,-170.73 144.55,-253.33 41.67,-70.2 113.95,-179.59 143.49,-249.77l327.8 0.72 -2.98 -41.43 -351.35 -3.32c-11.01,14.44 -23.55,27.61 -37.23,46.46 -12.79,17.62 -22.97,30.94 -37.92,48.64 -104.7,124.01 -26.72,96.56 -260.79,98.44z"/>
   <path class="fil0" d="M1057.17 2417c206.81,2.66 174.82,-15.01 219.24,46.41 34.07,47.12 87.86,102.37 106.47,142.5l370.64 -2.26 -0.65 -41.63 -334.19 -0.22c-50.26,-76.44 -91.63,-159.94 -138.34,-237.15 -47.18,-77.97 -93.99,-159.14 -139.31,-230.85l-84.15 5.05 0.29 318.15z"/>
  </g>
 </g>
</svg>
